<svg width="20" height="20" viewBox="0 0 20 20" fill="none" xmlns="http://www.w3.org/2000/svg">
<path d="M9.75 0C7.82164 0 5.93657 0.571828 4.33319 1.64317C2.72982 2.71451 1.48013 4.23726 0.742179 6.01884C0.00422452 7.80042 -0.188858 9.76082 0.187348 11.6521C0.563554 13.5434 1.49215 15.2807 2.85571 16.6443C4.21928 18.0079 5.95656 18.9365 7.84787 19.3127C9.73919 19.6889 11.6996 19.4958 13.4812 18.7578C15.2627 18.0199 16.7855 16.7702 17.8568 15.1668C18.9282 13.5634 19.5 11.6784 19.5 9.75C19.4973 7.16498 18.4692 4.68661 16.6413 2.85872C14.8134 1.03084 12.335 0.00272983 9.75 0ZM9.75 18C8.11831 18 6.52326 17.5161 5.16655 16.6096C3.80984 15.7031 2.75242 14.4146 2.128 12.9071C1.50358 11.3996 1.3402 9.74085 1.65853 8.1405C1.97685 6.54016 2.76259 5.07015 3.91637 3.91637C5.07016 2.76259 6.54017 1.97685 8.14051 1.65852C9.74085 1.34019 11.3997 1.50357 12.9071 2.12799C14.4146 2.75242 15.7031 3.80984 16.6096 5.16655C17.5161 6.52325 18 8.1183 18 9.75C17.9975 11.9373 17.1275 14.0343 15.5809 15.5809C14.0343 17.1275 11.9373 17.9975 9.75 18ZM15 9.75C15 10.7884 14.6921 11.8034 14.1152 12.6667C13.5383 13.5301 12.7184 14.203 11.7591 14.6004C10.7998 14.9977 9.74418 15.1017 8.72578 14.8991C7.70738 14.6966 6.77192 14.1965 6.03769 13.4623C5.30347 12.7281 4.80345 11.7926 4.60088 10.7742C4.39831 9.75582 4.50228 8.70022 4.89964 7.74091C5.297 6.7816 5.9699 5.96166 6.83326 5.38478C7.69662 4.80791 8.71165 4.5 9.75 4.5C11.1419 4.50149 12.4764 5.05509 13.4607 6.03933C14.4449 7.02358 14.9985 8.35807 15 9.75Z" fill="#0C7D69"/>
</svg>
